<svg xmlns="http://www.w3.org/2000/svg" width="256" height="186" viewBox="0 0 256 186" version="1.1"><path d="M 85.429 23.500 L 85.430 46.500 85.747 34.694 L 86.064 22.887 85.746 11.694 L 85.428 0.500 85.429 23.500 M 95.269 71.693 L 97.038 72.154 98.269 71.656 L 99.500 71.158 96.500 71.195 L 93.500 71.232 95.269 71.693 M 149.171 84.471 L 149.405 87.941 150.754 88.459 L 152.104 88.977 151.493 87.989 L 150.882 87 153.441 87 L 156 87 156 84 L 156 81 152.469 81 L 148.937 81 149.171 84.471 M 96.813 85.683 L 98.125 86.208 98.729 85.604 L 99.333 85 97.417 85.079 L 95.500 85.158 96.813 85.683 M 103.813 86.683 L 105.125 87.208 105.729 86.604 L 106.333 86 104.417 86.079 L 102.500 86.158 103.813 86.683 M 85.198 98.404 L 85.500 101.500 88.904 101.500 L 92.308 101.500 92.404 98.404 L 92.500 95.307 88.698 95.307 L 84.896 95.308 85.198 98.404 M 107 98.563 L 107 102.127 110.250 101.813 L 113.500 101.500 113.813 98.250 L 114.127 95 110.563 95 L 107 95 107 98.563 M 121 105.500 L 121 109 124.500 109 L 128 109 128 105.500 L 128 102 124.500 102 L 121 102 121 105.500 M 93.173 112.500 L 93.409 116 96.704 116 L 100 116 100 112.500 L 100 109 96.469 109 L 92.937 109 93.173 112.500 M 136 112.327 L 136 115.654 139 115.213 L 142 114.773 142 111.887 L 142 109 139 109 L 136 109 136 112.327 M 157 109.378 L 157 109.755 158.750 111.128 L 160.500 112.500 159.128 110.750 L 157.755 109 157.378 109 L 157 109 157 109.378 M 149.187 119.250 L 149.500 122.500 152.750 122.813 L 156 123.127 156 119.563 L 156 116 152.437 116 L 148.873 116 149.187 119.250 M 128 126.500 L 128 130 131.500 130 L 135 130 135 126.500 L 135 123 131.500 123 L 128 123 128 126.500 M 85.429 162.500 L 85.430 185.500 85.747 173.694 L 86.064 161.887 85.746 150.694 L 85.428 139.500 85.429 162.500" stroke="none" fill="#56b5fa" fill-rule="evenodd"/><path d="M 86 23.523 L 86 46.046 106.422 30.523 L 126.844 15 127.998 15 L 129.152 15 149.576 30.497 L 170 45.995 170 23.497 L 170 1 128 1 L 86 1 86 23.523 M 85.117 77.120 L 83 83.388 83 84.044 L 83 84.700 93.750 85.310 L 104.500 85.920 114 88.503 L 123.500 91.087 131.269 94.442 L 139.038 97.796 146.592 102.118 L 154.145 106.440 160.116 111.843 L 166.087 117.246 166.617 116.716 L 167.148 116.185 169.484 110.439 L 171.819 104.692 171.365 103.508 L 170.910 102.324 164.169 97.199 L 157.427 92.074 147.964 87.092 L 138.500 82.111 128 78.623 L 117.500 75.136 110 73.661 L 102.500 72.185 94.867 71.518 L 87.234 70.851 85.117 77.120 M 86 162.477 L 86 185 128 185 L 170 185 170 162.503 L 170 140.005 149.576 155.503 L 129.152 171 127.998 171 L 126.844 171 106.422 155.477 L 86 139.954 86 162.477" stroke="none" fill="#eeeeee" fill-rule="evenodd"/><path d="M 76.250 0.750 L 128 1.018 179.750 0.750 L 231.500 0.482 128 0.482 L 24.500 0.482 76.250 0.750 M 116.230 48.550 L 110.960 49.969 107.730 51.614 L 104.500 53.259 99.799 56.679 L 95.098 60.098 91.549 64.933 L 88 69.768 88 70.384 L 88 71 93.369 71 L 98.738 71 107.378 72.507 L 116.018 74.013 125.738 77.127 L 135.458 80.241 142.229 83.475 L 149 86.710 149 83.294 L 149 79.879 152.750 80.190 L 156.500 80.500 156.500 84 L 156.500 87.500 154.211 87.825 L 151.921 88.149 157.866 91.992 L 163.810 95.834 167.792 99.431 L 171.775 103.029 172.387 101.433 L 173 99.836 173 92.600 L 173 85.363 171.390 79.932 L 169.779 74.500 167.779 70.573 L 165.779 66.647 160.725 61.302 L 155.670 55.958 150.530 53.017 L 145.389 50.076 139.485 48.538 L 133.580 47 127.540 47.066 L 121.500 47.132 116.230 48.550 M 82.438 88.477 L 81.740 92.200 82.916 99.320 L 84.092 106.441 87.211 112.777 L 90.330 119.113 95.555 124.337 L 100.780 129.562 105.715 132.248 L 110.650 134.934 116.535 136.467 L 122.420 138 127.161 138 L 131.902 138 137.201 136.885 L 142.500 135.771 147.794 133.292 L 153.088 130.813 159.044 125.299 L 165 119.785 165 118.529 L 165 117.274 160.094 112.684 L 155.187 108.095 149.844 104.683 L 144.500 101.270 138.500 98.250 L 132.500 95.229 124 92.231 L 115.500 89.233 107.500 87.655 L 99.500 86.077 91.318 85.416 L 83.137 84.754 82.438 88.477 M 85.714 94.619 L 85 95.333 85 98.667 L 85 102 89.060 102 L 93.121 102 92.810 98.250 L 92.500 94.500 89.464 94.203 L 86.428 93.905 85.714 94.619 M 106.909 94.437 L 106.818 95 106.722 98.250 L 106.626 101.500 110.377 101.814 L 114.128 102.128 113.814 98.314 L 113.500 94.500 110.250 94.187 L 107 93.873 106.909 94.437 M 121 105.500 L 121 109 124.500 109 L 128 109 128 105.500 L 128 102 124.500 102 L 121 102 121 105.500 M 92 112.500 L 92 116 96 116 L 100 116 100 112.500 L 100 109 96 109 L 92 109 92 112.500 M 135 112.500 L 135 116 138.500 116 L 142 116 142 112.500 L 142 109 138.500 109 L 135 109 135 112.500 M 149 119.500 L 149 123 153 123 L 157 123 157 119.500 L 157 116 153 116 L 149 116 149 119.500 M 128 126.500 L 128 130 131.500 130 L 135 130 135 126.500 L 135 123 131.500 123 L 128 123 128 126.500 M 255 162 L 255 163 256 163 L 257 163 257 162 L 257 161 256 161 L 255 161 255 162 M 76.250 185.750 L 128 186.018 179.750 185.750 L 231.500 185.482 128 185.482 L 24.500 185.482 76.250 185.750" stroke="none" fill="#002478" fill-rule="evenodd"/><path d="M 171 23.842 L 171 46.683 201.460 69.592 L 231.920 92.500 231.920 93 L 231.920 93.500 201.460 116.408 L 171 139.317 171 162.158 L 171 185 201.634 185 L 232.268 185 236.038 183.870 L 239.809 182.741 244.637 179.092 L 249.464 175.443 252.482 169.542 L 255.500 163.641 255.500 93 L 255.500 22.359 252.482 16.458 L 249.464 10.557 244.637 6.908 L 239.809 3.259 236.038 2.130 L 232.268 1 201.634 1 L 171 1 171 23.842" stroke="none" fill="#d02832" fill-rule="evenodd"/><path d="M 170.231 23.247 L 170 45.995 149.484 30.427 L 128.967 14.860 127.602 15.180 L 126.237 15.500 75.173 54 L 24.108 92.500 24.108 93 L 24.108 93.500 75.173 132 L 126.237 170.500 127.602 170.820 L 128.967 171.140 149.465 155.587 L 169.963 140.034 170.251 162.767 L 170.539 185.500 170.770 162.408 L 171 139.317 201.460 116.408 L 231.920 93.500 231.920 93 L 231.920 92.500 201.478 69.605 L 171.036 46.711 170.749 23.605 L 170.461 0.500 170.231 23.247 M 113.762 48.887 L 108.024 50.776 102.996 54.002 L 97.969 57.228 93.882 61.864 L 89.795 66.500 88.010 70 L 86.225 73.500 84.113 80.355 L 82 87.211 82 92.395 L 82 97.580 83.492 103.307 L 84.983 109.034 87.403 113.767 L 89.822 118.500 93.399 122.645 L 96.975 126.789 102.292 130.318 L 107.608 133.847 113.772 135.923 L 119.937 138 127.218 137.988 L 134.500 137.976 139.650 136.605 L 144.800 135.234 150.091 132.367 L 155.383 129.500 160.199 124.694 L 165.016 119.889 167.005 115.991 L 168.993 112.092 171.189 106.296 L 173.385 100.500 173.294 92 L 173.204 83.500 171.081 77.500 L 168.958 71.500 165.390 66.297 L 161.822 61.095 157.452 57.514 L 153.082 53.933 146.291 50.743 L 139.500 47.553 129.500 47.276 L 119.500 46.999 113.762 48.887" stroke="none" fill="#ece05d" fill-rule="evenodd"/><path d="M 19.372 2.212 L 16.244 3.219 11.390 6.888 L 6.536 10.557 3.518 16.457 L 0.500 22.357 0.230 91.588 L -0.040 160.819 2.111 166.566 L 4.261 172.314 8.381 176.428 L 12.500 180.542 16.500 182.521 L 20.500 184.500 52.750 184.789 L 85 185.079 85 162.198 L 85 139.317 54.540 116.408 L 24.080 93.500 24.080 93 L 24.080 92.500 54.540 69.592 L 85 46.683 85 23.842 L 85 1 53.750 1.102 L 22.500 1.204 19.372 2.212 M 160 60.500 L 162.349 63 162.849 63 L 163.349 63 161 60.500 L 158.651 58 158.151 58 L 157.651 58 160 60.500 M 152.250 80.691 L 156 81.121 156 83.994 L 156 86.867 153.488 87.305 L 150.975 87.744 153.738 87.622 L 156.500 87.500 156.500 84 L 156.500 80.500 152.500 80.381 L 148.500 80.262 152.250 80.691 M 92.750 85.662 L 94 86.167 95.250 85.662 L 96.500 85.158 94 85.158 L 91.500 85.158 92.750 85.662 M 173.252 92.500 L 173.272 96.500 173.707 94.238 L 174.142 91.977 173.687 90.238 L 173.232 88.500 173.252 92.500 M 87.250 94.689 L 89 95.147 90.750 94.689 L 92.500 94.232 89 94.232 L 85.500 94.232 87.250 94.689 M 106.629 94.791 L 106.140 95.582 109.570 95.182 L 113 94.781 113 94.391 L 113 94 110.059 94 L 107.118 94 106.629 94.791 M 92.158 98 L 92.158 100.500 92.662 99.250 L 93.167 98 92.662 96.750 L 92.158 95.500 92.158 98 M 92.252 112.500 L 92.272 116.500 92.707 114.238 L 93.142 111.977 92.687 110.238 L 92.232 108.500 92.252 112.500 M 135.252 112.500 L 135.272 116.500 135.707 114.238 L 136.142 111.977 135.687 110.238 L 135.232 108.500 135.252 112.500 M 162.573 115.094 L 165.500 118.689 165.949 118.312 L 166.397 117.936 163.021 114.718 L 159.645 111.500 162.573 115.094 M 138.269 115.693 L 140.038 116.154 141.269 115.656 L 142.500 115.158 139.500 115.195 L 136.500 115.232 138.269 115.693 M 156.252 119.500 L 156.272 123.500 156.707 121.238 L 157.142 118.977 156.687 117.238 L 156.232 115.500 156.252 119.500 M 159.405 125.250 L 157.500 127.500 159.750 125.595 L 162 123.690 162 123.345 L 162 123 161.655 123 L 161.310 123 159.405 125.250" stroke="none" fill="#067555" fill-rule="evenodd"/></svg>